<svg id="f5a1a2e2-a956-4ada-b844-1fb89770504c" data-name="Laag 1" xmlns="http://www.w3.org/2000/svg" viewBox="0 0 262.32 268.38"><defs><style>.e2c41812-c917-4d42-83a7-1f23a179042b{fill:#1d1d1b;}.af9fcfa0-bb35-4f79-8184-de374796e86f{font-size:7px;fill:#fff;font-family:HelveticaNeue, Helvetica Neue;}.ac1a1e53-8977-45ec-af83-32b8508e119d{letter-spacing:-0.02em;}</style></defs><title>arrow8</title><path class="e2c41812-c917-4d42-83a7-1f23a179042b" d="M332.92,107.49C370.92,140.71,474,251.87,474,251.87s12.51,13.82,2.09,31.8-35.19,16.16-46.66,0L296.25,146.06s-14.07-16.72,0-33.62C307.35,99.1,327,102.3,332.92,107.49Z" transform="translate(-290 -103)"/><path class="e2c41812-c917-4d42-83a7-1f23a179042b" d="M536.54,194.43S532.43,172.11,514,171c-14.46-.85-26.63,13.12-26.48,21.67.22,12.29,9.63,93.89,9.63,93.89S500,298,491.89,306.7a23,23,0,0,1-18.82,7.23L377,301.23s-18.6.22-23.41,20.36c0,0-3.29,22.1,17.5,28.45,0,0,108.11,17.63,144.45,21,12.16,1.13,36.07,1.46,36.76-32.17C553.05,302.56,536.54,194.43,536.54,194.43Z" transform="translate(-290 -103)"/><text class="af9fcfa0-bb35-4f79-8184-de374796e86f" transform="translate(95.19 80.75)">31 <tspan x="-8.47" y="8.4">January</tspan><tspan x="-16.93" y="16.8">Lectu</tspan><tspan class="ac1a1e53-8977-45ec-af83-32b8508e119d" x="0.57" y="16.8">r</tspan><tspan x="2.78" y="16.8">e</tspan><tspan x="-23.92" y="25.2">James Glymph</tspan><tspan x="-15.58" y="33.6">Go</tspan><tspan class="ac1a1e53-8977-45ec-af83-32b8508e119d" x="-6.25" y="33.6">r</tspan><tspan x="-4.05" y="33.6">don Smitch </tspan><tspan x="-7.25" y="42">Lectu</tspan><tspan class="ac1a1e53-8977-45ec-af83-32b8508e119d" x="10.26" y="42">r</tspan><tspan x="12.46" y="42">er in pratical </tspan><tspan x="1.08" y="50.4">A</tspan><tspan class="ac1a1e53-8977-45ec-af83-32b8508e119d" x="5.62" y="50.4">r</tspan><tspan x="7.83" y="50.4">chitectu</tspan><tspan class="ac1a1e53-8977-45ec-af83-32b8508e119d" x="32.85" y="50.4">r</tspan><tspan x="35.05" y="50.4">e</tspan><tspan x="17.75" y="67.2">“Practial </tspan><tspan x="26.08" y="75.6">A</tspan><tspan class="ac1a1e53-8977-45ec-af83-32b8508e119d" x="30.62" y="75.6">r</tspan><tspan x="32.82" y="75.6">chitectu</tspan><tspan class="ac1a1e53-8977-45ec-af83-32b8508e119d" x="57.85" y="75.6">r</tspan><tspan x="60.05" y="75.6">e</tspan></text></svg>