<svg id="a58d26e1-f939-4723-b6c7-d3cfcdd950f7" data-name="Laag 1" xmlns="http://www.w3.org/2000/svg" viewBox="0 0 280.41 258.5"><defs><style>.be8357fa-c1b3-4ddd-a7d7-e9425e275278{fill:#1e1e1c;}.a40f5080-677d-442c-b7b9-f10d635fa71b{font-size:10px;fill:#fff;font-family:HelveticaNeue, Helvetica Neue;}.fc2a5949-6762-45f5-93b4-8149d9322918{letter-spacing:-0.02em;}.ad97646f-cc68-4c0d-a06e-562aeaffed79{letter-spacing:-0.06em;}</style></defs><title>arrow91</title><path class="be8357fa-c1b3-4ddd-a7d7-e9425e275278" d="M157.4,366.81s96.06-11.13,145.38,5c27.14,8.88,51,21.73,55.6,51.58,3.68,23.93-20.09,44.89-50.58,44.89l-.17,2.33s77.21,17.45,106.48,49.4c0,0,31.06,26.4,20.74,63.89s-47.92,43.47-73.64,33.12-58-36.08-84.87-112.4h-2.21s7.79,56.58-45.45,53.58c0,0-44.73.58-65.82-92.87C162.79,465.42,153.77,410.79,157.4,366.81Z" transform="translate(-156.54 -363.07)"/><text class="a40f5080-677d-442c-b7b9-f10d635fa71b" transform="translate(31.63 29.66)">6 April<tspan x="0" y="12">Lectu</tspan><tspan class="fc2a5949-6762-45f5-93b4-8149d9322918" x="25.01" y="12">r</tspan><tspan x="28.16" y="12">e</tspan><tspan x="0" y="24">Zaha Hadid</tspan><tspan x="0" y="36">Ee</tspan><tspan class="fc2a5949-6762-45f5-93b4-8149d9322918" x="11.48" y="36">r</tspan><tspan x="14.63" y="36">o Saarinen</tspan><tspan class="fc2a5949-6762-45f5-93b4-8149d9322918" x="0" y="48">V</tspan><tspan x="5.93" y="48">isiting P</tspan><tspan class="fc2a5949-6762-45f5-93b4-8149d9322918" x="41.3" y="48">r</tspan><tspan x="44.45" y="48">ofessor</tspan><tspan x="0" y="60">“Recent </tspan><tspan class="ad97646f-cc68-4c0d-a06e-562aeaffed79" x="38.71" y="60">W</tspan><tspan x="47.4" y="60">ork”</tspan><tspan x="0" y="72">Open House for</tspan><tspan x="0" y="84">Admitted Students</tspan></text></svg>