<svg id="a952a512-ad6d-432e-acd6-d2933a0481c7" data-name="Laag 1" xmlns="http://www.w3.org/2000/svg" viewBox="0 0 92.29 98.17"><defs><style>.a654b745-e318-45a2-94df-e06ea9ba0768{fill:#d1d3de;stroke:#1d1d1b;stroke-miterlimit:10;stroke-width:0.5px;}.bf819450-a723-441b-9f7e-4ffe40f96e46{font-size:2.5px;font-family:HelveticaNeue, Helvetica Neue;}.bf23b88b-6cb2-4dd7-b9b7-83ed437a46f0{letter-spacing:-0.02em;}.fdb562a4-eca3-4e83-af86-fb9095f71d47{letter-spacing:-0.09em;}.b32816ae-c24d-4c94-b099-96c240920664{letter-spacing:0.02em;}.ff5c49de-1f67-4113-b5c3-7c9dfb3d4a4c{letter-spacing:-0.06em;}</style></defs><title>arrow14</title><rect class="a654b745-e318-45a2-94df-e06ea9ba0768" x="32.58" y="-8.45" width="26.58" height="116.86" rx="12.86" transform="translate(-21.76 43.14) rotate(-41.78)"/><rect class="a654b745-e318-45a2-94df-e06ea9ba0768" x="12.64" y="70.02" width="77.03" height="27.28" rx="12.86"/><rect class="a654b745-e318-45a2-94df-e06ea9ba0768" x="39.39" y="45.72" width="77.03" height="25.99" rx="12.86" transform="translate(15.52 133.69) rotate(-87.35)"/><circle class="a654b745-e318-45a2-94df-e06ea9ba0768" cx="13.3" cy="13.3" r="13.05"/><ellipse class="a654b745-e318-45a2-94df-e06ea9ba0768" cx="76.52" cy="84.07" rx="13.53" ry="13.85"/><ellipse class="a654b745-e318-45a2-94df-e06ea9ba0768" cx="24.98" cy="83.65" rx="13.05" ry="13.43"/><circle class="a654b745-e318-45a2-94df-e06ea9ba0768" cx="78.99" cy="30.59" r="13.05"/><text class="bf819450-a723-441b-9f7e-4ffe40f96e46" transform="translate(27.4 33.9)">21 February - 31 <tspan x="0" y="3">Ma</tspan><tspan class="bf23b88b-6cb2-4dd7-b9b7-83ed437a46f0" x="3.52" y="3">r</tspan><tspan x="4.31" y="3">ch</tspan><tspan x="0" y="6">Exhibition</tspan><tspan x="0" y="9">North Gallery</tspan><tspan class="fdb562a4-eca3-4e83-af86-fb9095f71d47" x="0" y="12">T</tspan><tspan x="1.21" y="12">u</tspan><tspan class="b32816ae-c24d-4c94-b099-96c240920664" x="2.6" y="12">r</tspan><tspan x="3.47" y="12">ner B</tspan><tspan class="bf23b88b-6cb2-4dd7-b9b7-83ed437a46f0" x="9.44" y="12">r</tspan><tspan x="10.23" y="12">ooks: </tspan><tspan class="ff5c49de-1f67-4113-b5c3-7c9dfb3d4a4c" x="17.04" y="12">W</tspan><tspan x="19.21" y="12">ork</tspan></text></svg>