<svg id="b0c8da80-c725-4cbe-8239-72c5e4cae89a" data-name="Laag 1" xmlns="http://www.w3.org/2000/svg" viewBox="0 0 461.4 349.7"><defs><style>.bd63c5a3-90ee-42bf-86fd-bcc19d850321{fill:#1d1d1b;}.bee9758a-cb69-4f22-a4aa-9551685c5f43{font-size:12px;fill:#fff;font-family:MyriadPro-Regular, Myriad Pro;}.b02bd386-5b8a-4fba-a7b4-c05ff9261b8c{letter-spacing:0.02em;}.bdfa8d74-417f-453a-89ac-a18e8304c2ad{letter-spacing:-0.01em;}.b5fbd226-7806-42e4-9dca-55c3703d9659{letter-spacing:0.01em;}.b00101e8-fbf1-4bfb-9e20-1918025adf14{letter-spacing:-0.01em;}.b363b8d5-664c-41ab-8465-f712bccc0f16{letter-spacing:-0.07em;}.be11c9d5-6a93-4f39-9524-ed702bd7f092{letter-spacing:-0.04em;}.b5d981de-5f0b-4a0c-88e8-9d3591233e0d{letter-spacing:-0.02em;}.b7d63aae-7589-4a5f-a32a-a1e5ffc38c6b{letter-spacing:-0.04em;}.e95edcf4-2dff-4846-b4d4-ef6087d15bfb{letter-spacing:-0.05em;}.abbc4b0f-f0ff-4445-a92e-01f1378fb437{letter-spacing:-0.03em;}.a89e3586-bfe0-425b-85a1-82369020e9fe{letter-spacing:0.01em;}.b3dc8775-77f4-44a2-897a-486e91b2acb4{letter-spacing:-0.01em;}.f64ef5f2-61ae-4627-9ce6-8e595aaf1659{letter-spacing:0.04em;}.e1295612-1491-4a89-8189-eba9c23ef446{letter-spacing:0em;}.a3fb075f-ddb3-4de3-9fe8-42d19a3dac88{letter-spacing:-0.01em;}.b0bb953d-d0f0-4a93-8694-291a8a9b6e14{letter-spacing:0em;}.b669aba7-68c8-4506-9a16-9cecd3185a88{letter-spacing:0.01em;}.ed496a77-81ff-42e8-9056-c885725bc6f7{letter-spacing:-0.09em;}</style></defs><title>arrow5</title><path class="bd63c5a3-90ee-42bf-86fd-bcc19d850321" d="M191.7,0,0,174.3,187.1,349.7l1.5-91.2S414.2,270.9,461.4,28.3l-22.4.3s-.5,32.9-58.4,53.9c0,0-87.1,33.4-190.1,7.5Z" transform="translate(0 0)"/><text class="bee9758a-cb69-4f22-a4aa-9551685c5f43" transform="translate(103.96 145.16)">17 Janua<tspan class="b02bd386-5b8a-4fba-a7b4-c05ff9261b8c" x="44.14" y="0">r</tspan><tspan x="48.36" y="0">y</tspan><tspan class="bdfa8d74-417f-453a-89ac-a18e8304c2ad" x="0" y="14.4">L</tspan><tspan x="5.5" y="14.4">e</tspan><tspan class="b5fbd226-7806-42e4-9dca-55c3703d9659" x="11.51" y="14.4">c</tspan><tspan x="17.04" y="14.4">tu</tspan><tspan class="b00101e8-fbf1-4bfb-9e20-1918025adf14" x="27.62" y="14.4">r</tspan><tspan x="31.43" y="14.4">e</tspan><tspan class="b363b8d5-664c-41ab-8465-f712bccc0f16" x="0" y="28.8">T</tspan><tspan x="5.11" y="28.8">od</tspan><tspan class="be11c9d5-6a93-4f39-9524-ed702bd7f092" x="18.47" y="28.8"> </tspan><tspan class="b5d981de-5f0b-4a0c-88e8-9d3591233e0d" x="20.58" y="28.8">W</tspan><tspan x="30.54" y="28.8">illiams &amp; Billie</tspan><tspan class="b7d63aae-7589-4a5f-a32a-a1e5ffc38c6b" x="98.51" y="28.8"> </tspan><tspan class="e95edcf4-2dff-4846-b4d4-ef6087d15bfb" x="100.56" y="28.8">T</tspan><tspan x="105.89" y="28.8">sien</tspan><tspan class="abbc4b0f-f0ff-4445-a92e-01f1378fb437" x="0" y="43.2">P</tspan><tspan x="6.07" y="43.2">aul Rudolph </tspan><tspan class="bdfa8d74-417f-453a-89ac-a18e8304c2ad" x="69.13" y="43.2">L</tspan><tspan x="74.63" y="43.2">e</tspan><tspan class="a89e3586-bfe0-425b-85a1-82369020e9fe" x="80.64" y="43.2">c</tspan><tspan x="86.17" y="43.2">tu</tspan><tspan class="b3dc8775-77f4-44a2-897a-486e91b2acb4" x="96.76" y="43.2">r</tspan><tspan x="100.56" y="43.2">es</tspan><tspan class="f64ef5f2-61ae-4627-9ce6-8e595aaf1659" x="0" y="57.6">“</tspan><tspan class="b363b8d5-664c-41ab-8465-f712bccc0f16" x="4.73" y="57.6">T</tspan><tspan x="9.84" y="57.6">o </tspan><tspan class="e1295612-1491-4a89-8189-eba9c23ef446" x="18.97" y="57.6">B</tspan><tspan x="25.52" y="57.6">e </tspan><tspan class="a3fb075f-ddb3-4de3-9fe8-42d19a3dac88" x="34.08" y="57.6">C</tspan><tspan x="40.91" y="57.6">o</tspan><tspan class="b0bb953d-d0f0-4a93-8694-291a8a9b6e14" x="47.5" y="57.6">n</tspan><tspan x="54.11" y="57.6">tinue</tspan><tspan class="b669aba7-68c8-4506-9a16-9cecd3185a88" x="80.17" y="57.6">d</tspan><tspan class="ed496a77-81ff-42e8-9056-c885725bc6f7" x="87.01" y="57.6">”</tspan></text></svg>