<svg id="a295bfe9-0781-4a0b-a211-6c2aeda9fa4c" data-name="Laag 1" xmlns="http://www.w3.org/2000/svg" viewBox="0 0 294.13 220.91"><title>arrow6</title><path d="M294.1,29s-46.5,22.7-86.4-1.3c0,0-7.9-3-27.6-19.7s-52.4-5.7-52.4,19.1,18.9,36.4,45.8,34.6c31.2-2.1,80-13.8,80-13.8l-.1,1.2S156,94.6,143.2,96.2L42.6,129.4S-15.6,143.7,4,196.3c0,0,27.7,55.4,85.3,0,0,0,91.8-88.4,103-93.7l64.6-47.9,1.4.5s-52.9,57.1-56.6,74.1c0,0-15.1,41,21.7,46.6s39.4-29.3,35.1-43.8c0,0-8.9-36.5,1.6-59C260.2,73.3,268.1,51.2,294.1,29Z" transform="translate(0.03 -0.02)" style="fill:#1d1d1b"/><rect x="84.93" y="86.36" width="59.4" height="168.5" transform="translate(-56.22 284.81) rotate(-89.86)" style="fill:none"/><g style="isolation:isolate"><text transform="translate(30.46 146.41)" style="isolation:isolate;font-size:8px;fill:#fff;font-family:HelveticaNeue, Helvetica Neue">3 April - 5 May</text><text transform="translate(30.46 156.01)" style="isolation:isolate;font-size:8px;fill:#fff;font-family:HelveticaNeue, Helvetica Neue">Exhibition</text><text transform="translate(30.46 165.61)" style="isolation:isolate;font-size:8px;fill:#fff;font-family:HelveticaNeue, Helvetica Neue">North Gallery</text><text transform="translate(30.36 175.21)" style="isolation:isolate;font-size:8px;fill:#fff;font-family:HelveticaNeue, Helvetica Neue">Steven Harris:</text><text transform="translate(30.36 184.81)" style="isolation:isolate;font-size:8px;fill:#fff;font-family:HelveticaNeue, Helvetica Neue">The <tspan x="15.56" y="0" style="letter-spacing:-0.05694580078125em">W</tspan><tspan x="22.51" y="0">eiss Houses</tspan></text></g></svg>