<?xml version="1.0" encoding="utf-8"?>
<!-- Generator: Adobe Illustrator 23.0.2, SVG Export Plug-In . SVG Version: 6.00 Build 0)  -->
<svg version="1.1" id="Laag_1" xmlns="http://www.w3.org/2000/svg" xmlns:xlink="http://www.w3.org/1999/xlink" x="0px" y="0px"
	 viewBox="0 0 162.3 229.7" style="enable-background:new 0 0 162.3 229.7;" xml:space="preserve">
<style type="text/css">
	.st0{fill:#1D1D1B;}
	.st1{fill:none;}
	.st2{fill:#FFFFFF;}
	.st3{font-family:'HelveticaNeue';}
	.st4{font-size:9px;}
</style>
<title>arrow10</title>
<path class="st0" d="M97.1,0l36.7,84.2c0,0-25.7,29.4-0.9,71.5l29.4-16.4l-8.2,90.4l-77.7-43.2l29.8-16.2c0,0-14.9-43-58.1-38.4
	L0,55.1c0,0,33.5-11,61.5-2.6C61.5,52.5,68,27.8,97.1,0z"/>
<rect x="45" y="66" class="st1" width="81.5" height="62.1"/>
<text transform="matrix(1 0 0 1 44.9906 72.4419)"><tspan x="0" y="0" class="st2 st3 st4">14 February</tspan><tspan x="0" y="10.8" class="st2 st3 st4">Lecture</tspan><tspan x="0" y="21.6" class="st2 st3 st4">William MacDonald</tspan><tspan x="0" y="32.4" class="st2 st3 st4">&amp; Sulan Kolatan</tspan><tspan x="0" y="43.2" class="st2 st3 st4">“About Lumping”</tspan></text>
</svg>
