<svg id="b93a2b06-ea6b-4a87-8427-7918b4516930" data-name="Laag 1" xmlns="http://www.w3.org/2000/svg" viewBox="0 0 104.48 75.18"><defs><style>.a1ebeecb-3da4-4368-925c-47a4b86559b1{fill:#d1d3de;stroke:#1d1d1b;stroke-miterlimit:10;stroke-width:2px;}.f71bfe71-474c-4662-902b-980231c5e5d7{font-size:2.5px;font-family:HelveticaNeue, Helvetica Neue;}.be7c2ab8-6c30-4226-ba1f-a676c357c573{letter-spacing:-0.02em;}.fc2afc0f-c6c0-490e-bf29-1e03baff1a0b{letter-spacing:0.02em;}</style></defs><title>arrow12</title><path class="a1ebeecb-3da4-4368-925c-47a4b86559b1" d="M68.64,1.27l34.58,11.29L91.15,55.27S85.8,69.7,71.42,61.79L55.91,45.41Z" transform="translate(0.03 0)"/><path class="a1ebeecb-3da4-4368-925c-47a4b86559b1" d="M10.4,24.67l29-7-4.94,5.11,37.82,40a6.05,6.05,0,0,0,3,1.9L37.85,73.89s-7.3,2.57-15.54-7.7L7,49.57,1.91,54.3Z" transform="translate(0.03 0)"/><text class="f71bfe71-474c-4662-902b-980231c5e5d7" transform="translate(19.04 35.47)">7 February<tspan x="0" y="3">Lectu</tspan><tspan class="be7c2ab8-6c30-4226-ba1f-a676c357c573" x="6.25" y="3">r</tspan><tspan x="7.04" y="3">e</tspan><tspan x="0" y="6">Colio St. John Wilson</tspan><tspan x="0" y="9">Bishop </tspan><tspan class="be7c2ab8-6c30-4226-ba1f-a676c357c573" x="8.52" y="9">V</tspan><tspan x="10" y="9">isiting P</tspan><tspan class="be7c2ab8-6c30-4226-ba1f-a676c357c573" x="18.84" y="9">r</tspan><tspan x="19.63" y="9">ofessor</tspan><tspan x="0" y="12">&amp; M.J. Long</tspan><tspan x="0" y="15">“The Design and Construction</tspan><tspan x="0" y="18">of the British Library</tspan><tspan x="0" y="21">1962-1999: A Mode</tspan><tspan class="fc2afc0f-c6c0-490e-bf29-1e03baff1a0b" x="22.23" y="21">r</tspan><tspan x="23.11" y="21">n Epic”</tspan></text></svg>