<svg id="bdb787ed-3180-45c6-b285-d044d5603615" data-name="Laag 1" xmlns="http://www.w3.org/2000/svg" viewBox="0 0 68.41 66.61"><title>arrow15</title><polygon points="0.69 6.63 0 56.52 38.42 58.59 38.42 66.61 68.41 35.38 39.25 0 39.25 8.43 0.69 6.63" fill="#1d1d1b"/><text transform="translate(8.02 15.61)" font-size="2.5" fill="#fff" font-family="HelveticaNeue, Helvetica Neue">20 Ma<tspan x="7" y="0" letter-spacing="-0.02em">r</tspan><tspan x="7.78" y="0">ch</tspan><tspan x="0" y="3">Lectu</tspan><tspan x="6.25" y="3" letter-spacing="-0.02em">r</tspan><tspan x="7.04" y="3">e</tspan><tspan x="0" y="6">Hugh Ha</tspan><tspan x="9.86" y="6" letter-spacing="-0.02em">r</tspan><tspan x="10.65" y="6">dy</tspan><tspan x="0" y="9">B</tspan><tspan x="1.71" y="9" letter-spacing="-0.02em">r</tspan><tspan x="2.5" y="9">endan Gill Lectu</tspan><tspan x="20.65" y="9" letter-spacing="-0.02em">r</tspan><tspan x="21.44" y="9">er</tspan><tspan x="0" y="12">“Is it Old or New?</tspan><tspan x="0" y="15">A Peritous P</tspan><tspan x="13.84" y="15" letter-spacing="-0.02em">r</tspan><tspan x="14.63" y="15">ofessional Jou</tspan><tspan x="30.74" y="15" letter-spacing="0.02em">r</tspan><tspan x="31.62" y="15">ney”</tspan><tspan x="0" y="18">20 Ma</tspan><tspan x="7" y="18" letter-spacing="-0.02em">r</tspan><tspan x="7.78" y="18">ch - 3 June</tspan><tspan x="0" y="21">Exhibition </tspan><tspan x="0" y="24">Thi</tspan><tspan x="3.38" y="24" letter-spacing="-0.02em">r</tspan><tspan x="4.17" y="24">d floor North </tspan><tspan x="18.98" y="24" letter-spacing="-0.04em">W</tspan><tspan x="21.2" y="24">all</tspan><tspan x="0" y="27">Photography for A</tspan><tspan x="20.42" y="27" letter-spacing="-0.02em">r</tspan><tspan x="21.2" y="27">chitectu</tspan><tspan x="30.14" y="27" letter-spacing="-0.02em">r</tspan><tspan x="30.93" y="27">e:</tspan><tspan x="0" y="30">Students of Roberto Espejo</tspan><tspan x="0" y="33">Thi</tspan><tspan x="3.38" y="33" letter-spacing="-0.02em">r</tspan><tspan x="4.17" y="33">d Floor South </tspan><tspan x="20.05" y="33" letter-spacing="-0.04em">W</tspan><tspan x="22.27" y="33">all</tspan><tspan x="0" y="36">Digital Media</tspan></text></svg>