<svg id="a58df54f-f03f-467d-a558-b2c6271f818e" data-name="Laag 1" xmlns="http://www.w3.org/2000/svg" viewBox="0 0 428.03 494.05"><defs><style>.b767b904-a82a-4f24-8955-efa31b3c82c4{fill:#d1d3de;stroke:#1e1e1c;stroke-miterlimit:10;stroke-width:6px;}.aa3ed3e7-a4be-4a73-ae02-555b2adbb380{font-size:14px;fill:#010101;font-family:HelveticaNeue, Helvetica Neue;}.edaf73d1-92b1-4a26-9d39-1f2efba7c7e2{letter-spacing:-0.02em;}.e058a8db-83c8-45d5-b9b3-ea4e5d559d3f{letter-spacing:-0.04em;}.e81dc097-0af8-4a92-bac0-213e43a42e2f{letter-spacing:-0.11em;}.ff88f8b6-f64f-4b12-95d8-58191bdd9741{letter-spacing:0.02em;}.a2c9ade6-4ec9-4ea9-b77c-4935129c5b4f{letter-spacing:-0.06em;}</style></defs><title>arrow2</title><path class="b767b904-a82a-4f24-8955-efa31b3c82c4" d="M85.91,392H209.35V241.85s-.37-26.69-22.24-30h-63s-31.51,7-35.22,40Z" transform="translate(-82.84 -208.83)"/><path class="b767b904-a82a-4f24-8955-efa31b3c82c4" d="M190.85,212.17,365.05,214s36.34-1.78,36.47,40.88l-5.16,284.58H502.21L299.34,699.05,100.88,541.61H207.61v-297S203,217.94,190.85,212.17Z" transform="translate(-82.84 -208.83)"/><text class="aa3ed3e7-a4be-4a73-ae02-555b2adbb380" transform="translate(144.95 43.09)">10 January - 3/Ma<tspan class="edaf73d1-92b1-4a26-9d39-1f2efba7c7e2" x="114.38" y="0">r</tspan><tspan x="118.79" y="0">ch </tspan><tspan x="0" y="16.8">Exhibition</tspan><tspan x="0" y="33.6">Thi</tspan><tspan class="edaf73d1-92b1-4a26-9d39-1f2efba7c7e2" x="18.93" y="33.6">r</tspan><tspan x="23.34" y="33.6">d Floor North </tspan><tspan class="e058a8db-83c8-45d5-b9b3-ea4e5d559d3f" x="110.19" y="33.6">W</tspan><tspan x="122.64" y="33.6">all</tspan><tspan class="e81dc097-0af8-4a92-bac0-213e43a42e2f" x="0" y="50.4">T</tspan><tspan x="6.48" y="50.4">akenaka Inte</tspan><tspan class="ff88f8b6-f64f-4b12-95d8-58191bdd9741" x="86.1" y="50.4">r</tspan><tspan x="91.01" y="50.4">nship </tspan><tspan class="a2c9ade6-4ec9-4ea9-b77c-4935129c5b4f" x="128.88" y="50.4">W</tspan><tspan x="141.05" y="50.4">ork</tspan><tspan x="0" y="67.2">of Brian Papa</tspan><tspan x="0" y="84">Thi</tspan><tspan class="edaf73d1-92b1-4a26-9d39-1f2efba7c7e2" x="18.93" y="84">r</tspan><tspan x="23.34" y="84">d Floor South </tspan><tspan class="e058a8db-83c8-45d5-b9b3-ea4e5d559d3f" x="112.28" y="84">W</tspan><tspan x="124.73" y="84">all</tspan><tspan class="edaf73d1-92b1-4a26-9d39-1f2efba7c7e2" x="0" y="100.8">V</tspan><tspan x="8.3" y="100.8">isual Studies</tspan></text></svg>