<svg id="a0ac5250-c9d6-4cda-9d83-281b09a46485" data-name="Laag 1" xmlns="http://www.w3.org/2000/svg" viewBox="0 0 295.27 355.31"><defs><style>.a342e20f-896b-4cee-b00a-3f9557346a32{fill:#1d1d1b;}.bdd788b1-54ef-43e0-a76a-00c6f0d46944{font-size:9px;fill:#fff;font-family:HelveticaNeue, Helvetica Neue;}.a74b7d98-5dbd-45f3-8538-26387553cb33{letter-spacing:-0.02em;}</style></defs><title>arrow13</title><path class="a342e20f-896b-4cee-b00a-3f9557346a32" d="M831.27,671.46l85.07-135.77S924.15,516,908,507.2s-34.6-28.9-5.55-49.16c28.05-19.59,123.1-58.27,123.1-58.27s33.65-12.52,49.33-5.55,17.16,46,17.16,46l-.15,134.07s1,34-28.06,30.13a54.78,54.78,0,0,1-23.47-13.09s-19.11-6.24-33.26,19.47-76.87,120.37-76.87,120.37S917.28,753.06,895,746l-61.61-40.65A34.15,34.15,0,0,1,831.27,671.46Z" transform="translate(-827.73 -392.11)"/><text class="bdd788b1-54ef-43e0-a76a-00c6f0d46944" transform="translate(91.6 154.17)">3 April<tspan x="0" y="10.8">Lectu</tspan><tspan class="a74b7d98-5dbd-45f3-8538-26387553cb33" x="22.51" y="10.8">r</tspan><tspan x="25.34" y="10.8">e</tspan><tspan x="0" y="21.6">Mario Schjetnan</tspan><tspan x="0" y="32.4">Timothy Egan lenahan Memorial Lectu</tspan><tspan class="a74b7d98-5dbd-45f3-8538-26387553cb33" x="154.21" y="32.4">r</tspan><tspan x="157.05" y="32.4">er</tspan><tspan x="0" y="43.2">“Place Making”</tspan></text></svg>