<svg id="f120a944-f399-49c8-a6e9-c489eeb8cb82" data-name="Laag 1" xmlns="http://www.w3.org/2000/svg" viewBox="0 0 315.61 210.79"><title>arrow16</title><path d="M509.69,292.16l-21.86-41.5h0l-.44-.79-.88-1.66h-.05l-46.13-83.16L247.44,236h1l14.29,21.48-68,67.56-.68,0,.24.47-.24.24.38,0,23.31,45.4,143.78,4.7,82.95-87.9-.23-1ZM348.81,334.1l0-.11,78.75-80.33v0Z" transform="translate(-194.08 -165.05)"/><text transform="translate(78.1 105.67)" font-size="9" fill="#fff" font-family="HelveticaNeue, Helvetica Neue">27 Ma<tspan x="25.18" y="0" letter-spacing="-0.02em">r</tspan><tspan x="28.02" y="0">ch</tspan><tspan x="0" y="10.8">Lectu</tspan><tspan x="22.51" y="10.8" letter-spacing="-0.02em">r</tspan><tspan x="25.34" y="10.8">e</tspan><tspan x="0" y="21.6">Laurie Hawkinson and </tspan><tspan x="0" y="32.4">Henry Smith-Miller</tspan><tspan x="0" y="43.2">“Between Spaces”</tspan></text></svg>