<?xml version="1.0" encoding="utf-8"?>
<!-- Generator: Adobe Illustrator 23.0.2, SVG Export Plug-In . SVG Version: 6.00 Build 0)  -->
<svg version="1.1" id="Laag_1" xmlns="http://www.w3.org/2000/svg" xmlns:xlink="http://www.w3.org/1999/xlink" x="0px" y="0px"
	 viewBox="0 0 190 129.4" style="enable-background:new 0 0 190 129.4;" xml:space="preserve">
<style type="text/css">
	.st0{fill:#1D1D1B;}
	.st1{fill:none;}
	.st2{fill:#FFFFFF;}
	.st3{font-family:'HelveticaNeue';}
	.st4{font-size:8px;}
</style>
<title>arrow11</title>
<path class="st0" d="M190,22.6c0,0-68.8-55.4-166.7,7.2c0,0-17.6-15.6-21.7-12.3S1.2,27.6,8.1,38.9c0,0,20.8,41.9,22.8,90
	c0,0,53-12.5,99.7-1.6c0,0,9.9,4.7,13.9,0.1s-10.8-14-16.7-18L190,22.6z"/>
<rect x="38.2" y="31.5" class="st1" width="106.3" height="66.4"/>
<text transform="matrix(1 0 0 1 38.1733 37.1827)"><tspan x="0" y="0" class="st2 st3 st4">11 February</tspan><tspan x="0" y="9.6" class="st2 st3 st4">Lecture</tspan><tspan x="0" y="19.2" class="st2 st3 st4">Kenneth Frampton</tspan><tspan x="0" y="28.8" class="st2 st3 st4">Brendan Gill Lecturer</tspan><tspan x="0" y="38.4" class="st2 st3 st4">“Perspecta in the late ‘60’s:</tspan><tspan x="0" y="48" class="st2 st3 st4">The End of the Beginning”</tspan></text>
</svg>
