<svg id="a9ad5ff5-f701-4cf3-b5c4-d3092f590681" data-name="Laag 1" xmlns="http://www.w3.org/2000/svg" viewBox="0 0 446.81 342.57"><defs><style>.b6c0e19a-f9eb-499d-856a-855a064b19ed,.fc0d8855-ba68-4f30-9a15-6d1fdc9008e1{fill:#1d1d1b;}.fc0d8855-ba68-4f30-9a15-6d1fdc9008e1{stroke:#1d1d1b;stroke-miterlimit:10;}.aea56df5-cd18-4925-b19c-2c3f9ee5abac{fill:#d1d3de;}.b416b020-306e-4951-919e-7666f8f3b020{font-size:13px;font-family:HelveticaNeue-CondensedBold, Helvetica Neue;font-weight:700;}.b0b5bb7e-92df-4a02-a9a5-9f8177a7d92a,.b416b020-306e-4951-919e-7666f8f3b020{fill:#fff;}.aa949917-b9ee-443d-9245-9b355fb4a11e{letter-spacing:-0.08em;}.f16c2cee-e394-4f4e-af09-3f5180f25b76{letter-spacing:-0.04em;}.b0b5bb7e-92df-4a02-a9a5-9f8177a7d92a{font-size:9px;font-family:HelveticaNeue, Helvetica Neue;}.a306c488-2f97-4e8b-b2c7-996e9442e1f3{letter-spacing:-0.02em;}.a124984f-2846-4d21-bbe2-a3e8bb7cb16b{letter-spacing:-0.02em;}.a06435e5-f274-42ed-9d88-f917455db602{letter-spacing:-0.11em;}.bd0791a2-1491-4e18-b942-a0d197b6353c{letter-spacing:-0.07em;}</style></defs><title>firstarrow</title><path class="fc0d8855-ba68-4f30-9a15-6d1fdc9008e1" d="M257.84,360.58V271.87s-.17-24.25-31.21-28.15H121.47s-32.91-.51-35.28,36L79.74,546.34s-.72,29.18,32.31,32.59H216.47s34-1.9,36.45-38l1.52-77.84s1.14-20.5,23.35-24.87h11.39s15.76,1.9,20.69,21.65l-2.09,99.86s1,15.76,20.7,20.31h8.73s8.16,1.14,32.09-22L495.93,449.83l20.88-18.6s9.11-10.25,8.73-21.45V398.39A33.46,33.46,0,0,0,508.65,373L358.12,245.5s-6.48-6.31-14.34-6.92H337s-20-2.45-22.57,22.36l-1.53,96.53s.11,18.57-22.21,24.43H278S264.06,381.59,257.84,360.58Z" transform="translate(-79.24 -238.01)"/><circle class="aea56df5-cd18-4925-b19c-2c3f9ee5abac" cx="317.65" cy="171.29" r="56.92"/><path class="b6c0e19a-f9eb-499d-856a-855a064b19ed" d="M385,367.24h-6.2a4.65,4.65,0,0,0-5,2.76s-.39,4.9,0,6.47c1.38,5.46,7.3,13.54,12.67,18.62v8.65s-6.17,2.61-10.88,25.9a47.37,47.37,0,0,0,0,7.17s.33,12.35,12,14.6c2.84.54,11.57,0,11.57,0s13.3-.83,13.85-12.4l-.14-9.78s1-5.93-8.2-23.56v-9.5S418,380.1,420,373.58a15.4,15.4,0,0,0,0-3.45s-.28-1.9-4.27-2.95h-8.27a6.36,6.36,0,0,0-5.51,6,76.56,76.56,0,0,1-.13,9c-.32,1.86-1.38,4.13-4.89,5.78h-3.24s-3.31-2.2-3.31-4.27V370.27s-.14-1.65-2.75-2.34Z" transform="translate(-79.24 -238.01)"/><g id="f6234120-fee4-4a6f-a35a-024fc6b10d4d" data-name="tekst"><text class="b416b020-306e-4951-919e-7666f8f3b020" transform="translate(29.17 42.46)"><tspan class="aa949917-b9ee-443d-9245-9b355fb4a11e">Y</tspan><tspan x="5.78" y="0">ale School </tspan><tspan x="0" y="15.6">of</tspan><tspan class="f16c2cee-e394-4f4e-af09-3f5180f25b76" x="10.09" y="15.6"> </tspan><tspan x="12.73" y="15.6">Architecture</tspan><tspan x="0" y="46.8">Lecture and </tspan><tspan x="0" y="62.4">Exhibitions </tspan><tspan x="0" y="78">Spring 2000</tspan></text><text class="b0b5bb7e-92df-4a02-a9a5-9f8177a7d92a" transform="translate(29.17 147.54)">Art and A<tspan class="a306c488-2f97-4e8b-b2c7-996e9442e1f3" x="37.67" y="0">r</tspan><tspan x="40.51" y="0">chitectu</tspan><tspan class="a124984f-2846-4d21-bbe2-a3e8bb7cb16b" x="72.68" y="0">r</tspan><tspan x="75.52" y="0">e Building</tspan><tspan x="0" y="10.8">180 </tspan><tspan class="a06435e5-f274-42ed-9d88-f917455db602" x="17.51" y="10.8">Y</tspan><tspan x="22.35" y="10.8">ork St</tspan><tspan class="a124984f-2846-4d21-bbe2-a3e8bb7cb16b" x="46.35" y="10.8">r</tspan><tspan x="49.19" y="10.8">eet</tspan><tspan x="0" y="21.6">New Haven, CT</tspan><tspan x="0" y="43.2">Lectu</tspan><tspan class="a306c488-2f97-4e8b-b2c7-996e9442e1f3" x="22.51" y="43.2">r</tspan><tspan x="25.34" y="43.2">es begin at 6:30 PM</tspan><tspan x="0" y="54">in Hastings Hall located in</tspan><tspan x="0" y="64.8">the basement of the building</tspan><tspan x="0" y="75.6">Doors open to the general</tspan><tspan x="0" y="86.4">public at 6:15 PM</tspan><tspan x="0" y="108">Exhibition hours a</tspan><tspan class="a306c488-2f97-4e8b-b2c7-996e9442e1f3" x="72.01" y="108">r</tspan><tspan x="74.84" y="108">e</tspan><tspan x="0" y="118.8">Monday th</tspan><tspan class="a306c488-2f97-4e8b-b2c7-996e9442e1f3" x="43.02" y="118.8">r</tspan><tspan x="45.85" y="118.8">ough Satu</tspan><tspan class="a124984f-2846-4d21-bbe2-a3e8bb7cb16b" x="87.2" y="118.8">r</tspan><tspan x="90.04" y="118.8">da</tspan><tspan class="bd0791a2-1491-4e18-b942-a0d197b6353c" x="100.21" y="118.8">y</tspan><tspan x="104.04" y="118.8">,</tspan><tspan x="0" y="129.6">10:00 AM to 5:00 PM</tspan><tspan x="0" y="151.2">The Main and North</tspan><tspan x="0" y="162">Galleries a</tspan><tspan class="a306c488-2f97-4e8b-b2c7-996e9442e1f3" x="42.16" y="162">r</tspan><tspan x="44.99" y="162">e located on</tspan><tspan x="0" y="172.8">the Second Floor</tspan></text></g></svg>