<svg id="Laag_1" data-name="Laag 1" xmlns="http://www.w3.org/2000/svg" viewBox="0 0 48.79 52.72"><defs><style>.cls-1{fill:#1d1d1b;}</style></defs><title>star</title><path class="cls-1" d="M336,675.14s5.23-24-2.56-22.87-2.3,16.74,0,22.87l-1.28,1s-16.73-16.73-20.69-10.86,7.92,10.22,19.67,12l.13,2.3S306.33,687,311.7,693.28s17.11-8.82,20.82-12.39l1.91.38s-5.75,25,2.56,23.63.12-13.28-.51-24l1.27-.39s18.91,16.1,21.08,10.6-.51-8.68-20.44-11.75l.13-2s25.67-8.94,18.27-14.95S337.5,676,337.5,676Z" transform="translate(-310.66 -652.23)"/></svg>